<?xml version="1.0" encoding="UTF-8" standalone="no"?>
<svg
   xmlns:dc="http://purl.org/dc/elements/1.1/"
   xmlns:cc="http://creativecommons.org/ns#"
   xmlns:rdf="http://www.w3.org/1999/02/22-rdf-syntax-ns#"
   xmlns:svg="http://www.w3.org/2000/svg"
   xmlns="http://www.w3.org/2000/svg"
   viewBox="0 0 1600 1600"
   height="1600"
   width="1600"
   xml:space="preserve"
   id="svg2"
   version="1.1"><metadata
     id="metadata8"><rdf:RDF><cc:Work
         rdf:about=""><dc:format>image/svg+xml</dc:format><dc:type
           rdf:resource="http://purl.org/dc/dcmitype/StillImage" /></cc:Work></rdf:RDF></metadata><defs
     id="defs6"><clipPath
       id="clipPath22"
       clipPathUnits="userSpaceOnUse"><path
         id="path20"
         d="m 2713.5,5372.78 c 54,-58.63 79.13,-133.6 76.09,-207.41 -3.03,-73.82 -34.22,-146.47 -92.85,-200.47 -117.26,-108.01 -299.87,-100.51 -407.88,16.75 -54.01,58.63 -79.13,133.6 -76.1,207.41 3.03,73.82 34.22,146.47 92.86,200.48 117.25,108 299.87,100.5 407.88,-16.76 z" /></clipPath><linearGradient
       id="linearGradient28"
       spreadMethod="pad"
       gradientTransform="matrix(577.324,0,0,-577.324,2212.51,5177.22)"
       gradientUnits="userSpaceOnUse"
       y2="0"
       x2="1"
       y1="0"
       x1="0"><stop
         id="stop24"
         offset="0"
         style="stop-opacity:1;stop-color:#5ec9bd" /><stop
         id="stop26"
         offset="1"
         style="stop-opacity:1;stop-color:#3d8598" /></linearGradient><clipPath
       id="clipPath38"
       clipPathUnits="userSpaceOnUse"><path
         id="path36"
         d="m 6761.13,7195.87 c -0.7,-7.46 -1.68,-14.89 -1.98,-22.37 -2.68,-64.95 9.87,-130.42 37.34,-190.91 l -893.18,-822.67 -893.19,-822.69 c -64.72,36.06 -137.15,53.6 -209.64,52.72 l -962.76,2808.08 c 40.76,21.8 79.28,48.35 114.17,80.49 34.91,32.15 64.54,68.4 89.62,107.24 z" /></clipPath><linearGradient
       id="linearGradient44"
       spreadMethod="pad"
       gradientTransform="matrix(2958.77,0,0,-2958.77,3837.72,6861.49)"
       gradientUnits="userSpaceOnUse"
       y2="0"
       x2="1"
       y1="0"
       x1="0"><stop
         id="stop40"
         offset="0"
         style="stop-opacity:1;stop-color:#5ec9bd" /><stop
         id="stop42"
         offset="1"
         style="stop-opacity:1;stop-color:#3d8598" /></linearGradient><clipPath
       id="clipPath54"
       clipPathUnits="userSpaceOnUse"><path
         id="path52"
         d="m 3023.26,5003.91 1373.92,-126.42 c 16.03,-70.41 49.82,-135.87 100.08,-190.43 52.86,-57.41 118.27,-96.23 188.13,-117.07 l 28.66,-1099.45 12.44,-477.42 c -40.03,-16.11 -78.16,-38.29 -113.17,-66.61 l -1719.2,1866.5 c 59.2,60.41 103.13,132.15 129.14,210.9 z" /></clipPath><linearGradient
       id="linearGradient60"
       spreadMethod="pad"
       gradientTransform="matrix(1832.37,0,0,-1832.37,2894.12,3965.21)"
       gradientUnits="userSpaceOnUse"
       y2="0"
       x2="1"
       y1="0"
       x1="0"><stop
         id="stop56"
         offset="0"
         style="stop-opacity:1;stop-color:#5ec9bd" /><stop
         id="stop58"
         offset="1"
         style="stop-opacity:1;stop-color:#3d8598" /></linearGradient><clipPath
       id="clipPath70"
       clipPathUnits="userSpaceOnUse"><path
         id="path68"
         d="M 4421.06,5137.97 3044.5,5264.63 c -16.83,105.94 -64.3,204.65 -138.63,285.35 -70.87,76.94 -160.24,130.44 -258.72,157.36 l 796.37,2442.71 c 36.63,-9.24 74.4,-15 113.03,-16.58 2.32,-0.1 4.62,-0.13 6.92,-0.13 6.61,0 13.17,0.29 19.77,0.33 l 969.59,-2827.99 c -10.7,-8.11 -21.16,-16.7 -31.23,-25.98 -43.84,-40.35 -77.55,-88.65 -100.54,-141.73" /></clipPath><linearGradient
       id="linearGradient76"
       spreadMethod="pad"
       gradientTransform="matrix(1905.68,0,0,-1905.68,2647.15,6644.01)"
       gradientUnits="userSpaceOnUse"
       y2="0"
       x2="1"
       y1="0"
       x1="0"><stop
         id="stop72"
         offset="0"
         style="stop-opacity:1;stop-color:#33897c" /><stop
         id="stop74"
         offset="1"
         style="stop-opacity:1;stop-color:#254954" /></linearGradient><clipPath
       id="clipPath86"
       clipPathUnits="userSpaceOnUse"><path
         id="path84"
         d="m 5222.25,4926.53 c 7.87,73.79 -3.55,149.3 -34.91,218.33 l 1786.4,1645.38 c 66.21,-36.88 140.5,-54.44 214.66,-52.65 L 8222.07,3837.02 c -38.48,-21.22 -74.95,-46.64 -108.1,-77.17 -33.14,-30.53 -61.45,-64.78 -85.76,-101.37 z" /></clipPath><linearGradient
       id="linearGradient92"
       spreadMethod="pad"
       gradientTransform="matrix(3034.73,0,0,-3034.73,5187.34,5224.36)"
       gradientUnits="userSpaceOnUse"
       y2="0"
       x2="1"
       y1="0"
       x1="0"><stop
         id="stop88"
         offset="0"
         style="stop-opacity:1;stop-color:#5ec9bd" /><stop
         id="stop90"
         offset="1"
         style="stop-opacity:1;stop-color:#3d8598" /></linearGradient><clipPath
       id="clipPath102"
       clipPathUnits="userSpaceOnUse"><path
         id="path100"
         d="m 6702.21,9046.72 c 81.78,-88.79 188.13,-146.43 304.82,-167.75 l 1.1,-47.25 29.86,-1280.21 c -51.95,-18.32 -101.11,-47.14 -144.12,-86.75 -10.08,-9.28 -19.49,-18.99 -28.45,-28.98 l -932.28,407.86 -1806.66,790.42 c 0.8,8.86 2.04,17.62 2.4,26.57 1.54,37.41 -0.75,74.37 -6.53,110.52 l 2440.76,564.06 c 16.37,-107.12 64.04,-206.99 139.1,-288.49 z" /></clipPath><linearGradient
       id="linearGradient108"
       spreadMethod="pad"
       gradientTransform="matrix(2915.64,0,0,-2915.64,4122.35,8385.49)"
       gradientUnits="userSpaceOnUse"
       y2="0"
       x2="1"
       y1="0"
       x1="0"><stop
         id="stop104"
         offset="0"
         style="stop-opacity:1;stop-color:#5ec9bd" /><stop
         id="stop106"
         offset="1"
         style="stop-opacity:1;stop-color:#3d8598" /></linearGradient><clipPath
       id="clipPath118"
       clipPathUnits="userSpaceOnUse"><path
         id="path116"
         d="m 9004.77,7064.46 -1415.93,173.27 c -14.41,73.36 -48.08,143.81 -102.34,202.68 -52.57,57.09 -117.57,95.8 -186.99,116.71 l -30.76,1318.98 -0.41,17.77 c 77.66,23.79 149.82,64.27 211.33,120.92 l 0.59,0.6 1646.43,-1787.52 -0.64,-0.53 C 9074.99,7180.3 9034.42,7125 9004.77,7064.46" /></clipPath><linearGradient
       id="linearGradient124"
       spreadMethod="pad"
       gradientTransform="matrix(1858.35,0,0,-1858.35,7268.34,8039.93)"
       gradientUnits="userSpaceOnUse"
       y2="0"
       x2="1"
       y1="0"
       x1="0"><stop
         id="stop120"
         offset="0"
         style="stop-opacity:1;stop-color:#33897c" /><stop
         id="stop122"
         offset="1"
         style="stop-opacity:1;stop-color:#254954" /></linearGradient><clipPath
       id="clipPath134"
       clipPathUnits="userSpaceOnUse"><path
         id="path132"
         d="m 8509.32,3904.9 c -11.3,0.46 -22.47,-0.04 -33.69,-0.26 L 7434.87,6825.09 c 9.29,7.21 18.49,14.58 27.29,22.69 41.2,37.95 72.86,82.4 95.26,130.27 l 1391.94,-170.34 c 3.44,-133.08 53.73,-259 144.76,-357.83 68.42,-74.28 154.12,-126.57 248.56,-154.37 L 8612.27,3890.79 c -33.48,7.77 -67.87,12.67 -102.95,14.11 z" /></clipPath><linearGradient
       id="linearGradient140"
       spreadMethod="pad"
       gradientTransform="matrix(1907.8,0,0,-1907.8,7434.88,5434.42)"
       gradientUnits="userSpaceOnUse"
       y2="0"
       x2="1"
       y1="0"
       x1="0"><stop
         id="stop136"
         offset="0"
         style="stop-opacity:1;stop-color:#5ec9bd" /><stop
         id="stop138"
         offset="1"
         style="stop-opacity:1;stop-color:#3d8598" /></linearGradient><clipPath
       id="clipPath150"
       clipPathUnits="userSpaceOnUse"><path
         id="path148"
         d="m 5325.44,2688.26 c -17.78,71.66 -53.18,138.18 -104.6,194 -64.54,70.06 -146.57,114.38 -233.29,133.08 l -40.67,1560.92 c 51.56,18.34 100.34,47.09 143.06,86.46 8.8,8.1 16.91,16.68 24.86,25.35 L 7940.01,3411.32 c -1.13,-11.17 -2.56,-22.27 -3.02,-33.59 -1.49,-36.31 0.59,-72.23 6,-107.37 l -2617.55,-582.1" /></clipPath><linearGradient
       id="linearGradient156"
       spreadMethod="pad"
       gradientTransform="matrix(2996.1,0,0,-2996.1,4946.88,3688.16)"
       gradientUnits="userSpaceOnUse"
       y2="0"
       x2="1"
       y1="0"
       x1="0"><stop
         id="stop152"
         offset="0"
         style="stop-opacity:1;stop-color:#33897c" /><stop
         id="stop154"
         offset="1"
         style="stop-opacity:1;stop-color:#254954" /></linearGradient><clipPath
       id="clipPath166"
       clipPathUnits="userSpaceOnUse"><path
         id="path164"
         d="m 3579.21,8394.55 c -77.86,0 -155.48,31.31 -212.39,93.1 -54.01,58.63 -79.13,133.6 -76.1,207.41 3.03,73.82 34.22,146.47 92.85,200.48 55.47,51.09 125.58,76.34 195.49,76.34 77.86,0 155.48,-31.31 212.39,-93.1 54.01,-58.63 79.13,-133.6 76.1,-207.41 -3.03,-73.81 -34.22,-146.47 -92.85,-200.48 -55.48,-51.09 -125.58,-76.34 -195.49,-76.34" /></clipPath><linearGradient
       id="linearGradient172"
       spreadMethod="pad"
       gradientTransform="matrix(577.324,0,0,-577.324,3290.47,8683.22)"
       gradientUnits="userSpaceOnUse"
       y2="0"
       x2="1"
       y1="0"
       x1="0"><stop
         id="stop168"
         offset="0"
         style="stop-opacity:1;stop-color:#33897c" /><stop
         id="stop170"
         offset="1"
         style="stop-opacity:1;stop-color:#254954" /></linearGradient><clipPath
       id="clipPath182"
       clipPathUnits="userSpaceOnUse"><path
         id="path180"
         d="m 7302.47,9207.16 c -117.26,-108 -299.87,-100.5 -407.88,16.76 -54,58.63 -79.13,133.6 -76.09,207.41 3.02,73.82 34.21,146.47 92.84,200.47 117.26,108.01 299.88,100.51 407.89,-16.75 54,-58.63 79.13,-133.6 76.09,-207.41 -3.03,-73.82 -34.22,-146.47 -92.85,-200.48 z" /></clipPath><linearGradient
       id="linearGradient188"
       spreadMethod="pad"
       gradientTransform="matrix(577.324,0,0,-577.324,6818.25,9419.48)"
       gradientUnits="userSpaceOnUse"
       y2="0"
       x2="1"
       y1="0"
       x1="0"><stop
         id="stop184"
         offset="0"
         style="stop-opacity:1;stop-color:#5ec9bd" /><stop
         id="stop186"
         offset="1"
         style="stop-opacity:1;stop-color:#3d8598" /></linearGradient><clipPath
       id="clipPath198"
       clipPathUnits="userSpaceOnUse"><path
         id="path196"
         d="m 9498.89,6533.98 c -77.86,0 -155.48,31.31 -212.38,93.09 -54.01,58.64 -79.14,133.6 -76.11,207.42 3.04,73.81 34.23,146.47 92.85,200.47 55.48,51.1 125.58,76.34 195.49,76.34 77.87,0 155.49,-31.31 212.4,-93.1 54.01,-58.63 79.13,-133.6 76.1,-207.41 -3.03,-73.81 -34.22,-146.47 -92.86,-200.47 -55.47,-51.09 -125.58,-76.34 -195.49,-76.34" /></clipPath><linearGradient
       id="linearGradient204"
       spreadMethod="pad"
       gradientTransform="matrix(577.327,0,0,-577.327,9210.16,6822.64)"
       gradientUnits="userSpaceOnUse"
       y2="0"
       x2="1"
       y1="0"
       x1="0"><stop
         id="stop200"
         offset="0"
         style="stop-opacity:1;stop-color:#33897c" /><stop
         id="stop202"
         offset="1"
         style="stop-opacity:1;stop-color:#254954" /></linearGradient><clipPath
       id="clipPath214"
       clipPathUnits="userSpaceOnUse"><path
         id="path212"
         d="m 8198.32,3367 c 3.03,73.82 34.22,146.47 92.85,200.47 117.26,108.01 299.87,100.51 407.88,-16.75 54.01,-58.64 79.13,-133.6 76.1,-207.41 -3.03,-73.82 -34.22,-146.47 -92.86,-200.48 -117.25,-108.01 -299.87,-100.51 -407.88,16.75 -54,58.64 -79.13,133.6 -76.09,207.42 z" /></clipPath><linearGradient
       id="linearGradient220"
       spreadMethod="pad"
       gradientTransform="matrix(577.324,0,0,-577.324,8198.07,3355.15)"
       gradientUnits="userSpaceOnUse"
       y2="0"
       x2="1"
       y1="0"
       x1="0"><stop
         id="stop216"
         offset="0"
         style="stop-opacity:1;stop-color:#5ec9bd" /><stop
         id="stop218"
         offset="1"
         style="stop-opacity:1;stop-color:#3d8598" /></linearGradient><clipPath
       id="clipPath230"
       clipPathUnits="userSpaceOnUse"><path
         id="path228"
         d="m 4893.17,2291.71 c -77.86,0 -155.49,31.31 -212.4,93.1 -54,58.63 -79.13,133.6 -76.09,207.41 3.02,73.81 34.21,146.47 92.84,200.47 55.48,51.1 125.59,76.35 195.5,76.35 77.86,0 155.48,-31.32 212.39,-93.1 54,-58.64 79.13,-133.6 76.09,-207.42 -3.03,-73.81 -34.22,-146.46 -92.85,-200.47 -55.47,-51.1 -125.57,-76.34 -195.48,-76.34" /></clipPath><linearGradient
       id="linearGradient236"
       spreadMethod="pad"
       gradientTransform="matrix(577.324,0,0,-577.324,4604.43,2580.37)"
       gradientUnits="userSpaceOnUse"
       y2="0"
       x2="1"
       y1="0"
       x1="0"><stop
         id="stop232"
         offset="0"
         style="stop-opacity:1;stop-color:#33897c" /><stop
         id="stop234"
         offset="1"
         style="stop-opacity:1;stop-color:#254954" /></linearGradient></defs><g
     transform="matrix(1.3333333,0,0,-1.3333333,0,1600)"
     id="g10"><g
       transform="scale(0.1)"
       id="g12"><path
         id="path14"
         style="fill:#111112;fill-opacity:1;fill-rule:nonzero;stroke:none"
         d="M 0,0 H 12000 V 12000 H 0 Z" /><g
         id="g16"><g
           clip-path="url(#clipPath22)"
           id="g18"><path
             id="path30"
             style="fill:url(#linearGradient28);fill-opacity:1;fill-rule:nonzero;stroke:none"
             d="m 2713.5,5372.78 c 54,-58.63 79.13,-133.6 76.09,-207.41 -3.03,-73.82 -34.22,-146.47 -92.85,-200.47 -117.26,-108.01 -299.87,-100.51 -407.88,16.75 -54.01,58.63 -79.13,133.6 -76.1,207.41 3.03,73.82 34.22,146.47 92.86,200.48 117.25,108 299.87,100.5 407.88,-16.76" /></g></g><g
         id="g32"><g
           clip-path="url(#clipPath38)"
           id="g34"><path
             id="path46"
             style="fill:url(#linearGradient44);fill-opacity:1;fill-rule:nonzero;stroke:none"
             d="m 6761.13,7195.87 c -0.7,-7.46 -1.68,-14.89 -1.98,-22.37 -2.68,-64.95 9.87,-130.42 37.34,-190.91 l -893.18,-822.67 -893.19,-822.69 c -64.72,36.06 -137.15,53.6 -209.64,52.72 l -962.76,2808.08 c 40.76,21.8 79.28,48.35 114.17,80.49 34.91,32.15 64.54,68.4 89.62,107.24 L 6761.13,7195.87" /></g></g><g
         id="g48"><g
           clip-path="url(#clipPath54)"
           id="g50"><path
             id="path62"
             style="fill:url(#linearGradient60);fill-opacity:1;fill-rule:nonzero;stroke:none"
             d="m 3023.26,5003.91 1373.92,-126.42 c 16.03,-70.41 49.82,-135.87 100.08,-190.43 52.86,-57.41 118.27,-96.23 188.13,-117.07 l 28.66,-1099.45 12.44,-477.42 c -40.03,-16.11 -78.16,-38.29 -113.17,-66.61 l -1719.2,1866.5 c 59.2,60.41 103.13,132.15 129.14,210.9" /></g></g><g
         id="g64"><g
           clip-path="url(#clipPath70)"
           id="g66"><path
             id="path78"
             style="fill:url(#linearGradient76);fill-opacity:1;fill-rule:nonzero;stroke:none"
             d="M 4421.06,5137.97 3044.5,5264.63 c -16.83,105.94 -64.3,204.65 -138.63,285.35 -70.87,76.94 -160.24,130.44 -258.72,157.36 l 796.37,2442.71 c 36.63,-9.24 74.4,-15 113.03,-16.58 2.32,-0.1 4.62,-0.13 6.92,-0.13 6.61,0 13.17,0.29 19.77,0.33 l 969.59,-2827.99 c -10.7,-8.11 -21.16,-16.7 -31.23,-25.98 -43.84,-40.35 -77.55,-88.65 -100.54,-141.73" /></g></g><g
         id="g80"><g
           clip-path="url(#clipPath86)"
           id="g82"><path
             id="path94"
             style="fill:url(#linearGradient92);fill-opacity:1;fill-rule:nonzero;stroke:none"
             d="m 5222.25,4926.53 c 7.87,73.79 -3.55,149.3 -34.91,218.33 l 1786.4,1645.38 c 66.21,-36.88 140.5,-54.44 214.66,-52.65 L 8222.07,3837.02 c -38.48,-21.22 -74.95,-46.64 -108.1,-77.17 -33.14,-30.53 -61.45,-64.78 -85.76,-101.37 L 5222.25,4926.53" /></g></g><g
         id="g96"><g
           clip-path="url(#clipPath102)"
           id="g98"><path
             id="path110"
             style="fill:url(#linearGradient108);fill-opacity:1;fill-rule:nonzero;stroke:none"
             d="m 6702.21,9046.72 c 81.78,-88.79 188.13,-146.43 304.82,-167.75 l 1.1,-47.25 29.86,-1280.21 c -51.95,-18.32 -101.11,-47.14 -144.12,-86.75 -10.08,-9.28 -19.49,-18.99 -28.45,-28.98 l -932.28,407.86 -1806.66,790.42 c 0.8,8.86 2.04,17.62 2.4,26.57 1.54,37.41 -0.75,74.37 -6.53,110.52 l 2440.76,564.06 c 16.37,-107.12 64.04,-206.99 139.1,-288.49" /></g></g><g
         id="g112"><g
           clip-path="url(#clipPath118)"
           id="g114"><path
             id="path126"
             style="fill:url(#linearGradient124);fill-opacity:1;fill-rule:nonzero;stroke:none"
             d="m 9004.77,7064.46 -1415.93,173.27 c -14.41,73.36 -48.08,143.81 -102.34,202.68 -52.57,57.09 -117.57,95.8 -186.99,116.71 l -30.76,1318.98 -0.41,17.77 c 77.66,23.79 149.82,64.27 211.33,120.92 l 0.59,0.6 1646.43,-1787.52 -0.64,-0.53 C 9074.99,7180.3 9034.42,7125 9004.77,7064.46" /></g></g><g
         id="g128"><g
           clip-path="url(#clipPath134)"
           id="g130"><path
             id="path142"
             style="fill:url(#linearGradient140);fill-opacity:1;fill-rule:nonzero;stroke:none"
             d="m 8509.32,3904.9 c -11.3,0.46 -22.47,-0.04 -33.69,-0.26 L 7434.87,6825.09 c 9.29,7.21 18.49,14.58 27.29,22.69 41.2,37.95 72.86,82.4 95.26,130.27 l 1391.94,-170.34 c 3.44,-133.08 53.73,-259 144.76,-357.83 68.42,-74.28 154.12,-126.57 248.56,-154.37 L 8612.27,3890.79 c -33.48,7.77 -67.87,12.67 -102.95,14.11" /></g></g><g
         id="g144"><g
           clip-path="url(#clipPath150)"
           id="g146"><path
             id="path158"
             style="fill:url(#linearGradient156);fill-opacity:1;fill-rule:nonzero;stroke:none"
             d="m 5325.44,2688.26 c -17.78,71.66 -53.18,138.18 -104.6,194 -64.54,70.06 -146.57,114.38 -233.29,133.08 l -40.67,1560.92 c 51.56,18.34 100.34,47.09 143.06,86.46 8.8,8.1 16.91,16.68 24.86,25.35 L 7940.01,3411.32 c -1.13,-11.17 -2.56,-22.27 -3.02,-33.59 -1.49,-36.31 0.59,-72.23 6,-107.37 l -2617.55,-582.1" /></g></g><g
         id="g160"><g
           clip-path="url(#clipPath166)"
           id="g162"><path
             id="path174"
             style="fill:url(#linearGradient172);fill-opacity:1;fill-rule:nonzero;stroke:none"
             d="m 3579.21,8394.55 c -77.86,0 -155.48,31.31 -212.39,93.1 -54.01,58.63 -79.13,133.6 -76.1,207.41 3.03,73.82 34.22,146.47 92.85,200.48 55.47,51.09 125.58,76.34 195.49,76.34 77.86,0 155.48,-31.31 212.39,-93.1 54.01,-58.63 79.13,-133.6 76.1,-207.41 -3.03,-73.81 -34.22,-146.47 -92.85,-200.48 -55.48,-51.09 -125.58,-76.34 -195.49,-76.34" /></g></g><g
         id="g176"><g
           clip-path="url(#clipPath182)"
           id="g178"><path
             id="path190"
             style="fill:url(#linearGradient188);fill-opacity:1;fill-rule:nonzero;stroke:none"
             d="m 7302.47,9207.16 c -117.26,-108 -299.87,-100.5 -407.88,16.76 -54,58.63 -79.13,133.6 -76.09,207.41 3.02,73.82 34.21,146.47 92.84,200.47 117.26,108.01 299.88,100.51 407.89,-16.75 54,-58.63 79.13,-133.6 76.09,-207.41 -3.03,-73.82 -34.22,-146.47 -92.85,-200.48" /></g></g><g
         id="g192"><g
           clip-path="url(#clipPath198)"
           id="g194"><path
             id="path206"
             style="fill:url(#linearGradient204);fill-opacity:1;fill-rule:nonzero;stroke:none"
             d="m 9498.89,6533.98 c -77.86,0 -155.48,31.31 -212.38,93.09 -54.01,58.64 -79.14,133.6 -76.11,207.42 3.04,73.81 34.23,146.47 92.85,200.47 55.48,51.1 125.58,76.34 195.49,76.34 77.87,0 155.49,-31.31 212.4,-93.1 54.01,-58.63 79.13,-133.6 76.1,-207.41 -3.03,-73.81 -34.22,-146.47 -92.86,-200.47 -55.47,-51.09 -125.58,-76.34 -195.49,-76.34" /></g></g><g
         id="g208"><g
           clip-path="url(#clipPath214)"
           id="g210"><path
             id="path222"
             style="fill:url(#linearGradient220);fill-opacity:1;fill-rule:nonzero;stroke:none"
             d="m 8198.32,3367 c 3.03,73.82 34.22,146.47 92.85,200.47 117.26,108.01 299.87,100.51 407.88,-16.75 54.01,-58.64 79.13,-133.6 76.1,-207.41 -3.03,-73.82 -34.22,-146.47 -92.86,-200.48 -117.25,-108.01 -299.87,-100.51 -407.88,16.75 -54,58.64 -79.13,133.6 -76.09,207.42" /></g></g><g
         id="g224"><g
           clip-path="url(#clipPath230)"
           id="g226"><path
             id="path238"
             style="fill:url(#linearGradient236);fill-opacity:1;fill-rule:nonzero;stroke:none"
             d="m 4893.17,2291.71 c -77.86,0 -155.49,31.31 -212.4,93.1 -54,58.63 -79.13,133.6 -76.09,207.41 3.02,73.81 34.21,146.47 92.84,200.47 55.48,51.1 125.59,76.35 195.5,76.35 77.86,0 155.48,-31.32 212.39,-93.1 54,-58.64 79.13,-133.6 76.09,-207.42 -3.03,-73.81 -34.22,-146.46 -92.85,-200.47 -55.47,-51.1 -125.57,-76.34 -195.48,-76.34" /></g></g></g></g></svg>